<svg width="20" height="20" viewBox="0 0 20 20" fill="none" xmlns="http://www.w3.org/2000/svg">
<path d="M9.16663 5.83332H10.8333V7.49999H9.16663V5.83332ZM9.16663 9.16666H10.8333V14.1667H9.16663V9.16666ZM9.99996 1.66666C5.39996 1.66666 1.66663 5.39999 1.66663 9.99999C1.66663 14.6 5.39996 18.3333 9.99996 18.3333C14.6 18.3333 18.3333 14.6 18.3333 9.99999C18.3333 5.39999 14.6 1.66666 9.99996 1.66666ZM9.99996 16.6667C6.32496 16.6667 3.33329 13.675 3.33329 9.99999C3.33329 6.32499 6.32496 3.33332 9.99996 3.33332C13.675 3.33332 16.6666 6.32499 16.6666 9.99999C16.6666 13.675 13.675 16.6667 9.99996 16.6667Z" fill="currentColor"/>
</svg>
