<svg width="16" height="16" viewBox="0 0 16 16" fill="none" xmlns="http://www.w3.org/2000/svg">
<rect width="16" height="16" rx="2" fill="currentColor"/>
<path d="M6.57398 10.6953C6.85012 10.6953 7.07398 10.4714 7.07398 10.1953C7.07398 9.91914 6.85012 9.69529 6.57398 9.69529V10.6953ZM9.42602 9.69529C9.14988 9.69529 8.92602 9.91914 8.92602 10.1953C8.92602 10.4714 9.14988 10.6953 9.42602 10.6953V9.69529ZM12.7832 5.15426L13.06 5.57064L12.7832 5.15426ZM12.951 5.26584L13.4421 5.35991L12.951 5.26584ZM9.92614 6.92186L10.3436 6.64667L9.92614 6.92186ZM10.0779 6.95272L10.3547 7.36911L10.0779 6.95272ZM7.90875 4.13843L7.49129 3.86323L7.90875 4.13843ZM8.09125 4.13843L7.6738 4.41362L8.09125 4.13843ZM5.9221 6.95272L5.64528 7.36911L5.9221 6.95272ZM6.07386 6.92186L6.49131 7.19705L6.07386 6.92186ZM6.19891 6.53634L3.49366 4.73788L2.94003 5.57064L5.64528 7.36911L6.19891 6.53634ZM7.49129 3.86323L5.6564 6.64667L6.49131 7.19705L8.3262 4.41362L7.49129 3.86323ZM7.6738 4.41362L9.50869 7.19705L10.3436 6.64667L8.50871 3.86323L7.6738 4.41362ZM10.3547 7.36911L13.06 5.57064L12.5063 4.73788L9.80109 6.53634L10.3547 7.36911ZM12.4599 5.17177L11.5157 10.1012L12.4978 10.2894L13.4421 5.35991L12.4599 5.17177ZM11.5067 10.1953V11.5338H12.5067V10.1953H11.5067ZM3.49327 10.1953V11.5338H4.49327V10.1953H3.49327ZM2.55792 5.35991L3.50219 10.2894L4.48434 10.1012L3.54006 5.17177L2.55792 5.35991ZM11.8974 11.1431H4.10256V12.1431H11.8974V11.1431ZM3.99327 10.6953H6.57398V9.69529H3.99327V10.6953ZM12.0067 9.69529H9.42602V10.6953H12.0067V9.69529ZM3.49327 11.5338C3.49327 11.8703 3.76606 12.1431 4.10256 12.1431V11.1431C4.31834 11.1431 4.49327 11.318 4.49327 11.5338H3.49327ZM11.5067 11.5338C11.5067 11.318 11.6817 11.1431 11.8974 11.1431V12.1431C12.2339 12.1431 12.5067 11.8703 12.5067 11.5338H11.5067ZM13.06 5.57064C12.7716 5.76237 12.3948 5.5119 12.4599 5.17177L13.4421 5.35991C13.5437 4.82949 12.9561 4.43888 12.5063 4.73788L13.06 5.57064ZM9.50869 7.19705C9.6944 7.47878 10.0737 7.55592 10.3547 7.36911L9.80109 6.53634C9.98128 6.41655 10.2245 6.46602 10.3436 6.64667L9.50869 7.19705ZM8.3262 4.41362C8.1718 4.64784 7.8282 4.64784 7.6738 4.41362L8.50871 3.86323C8.26792 3.49797 7.73208 3.49797 7.49129 3.86323L8.3262 4.41362ZM3.49366 4.73788C3.04391 4.43888 2.45631 4.82949 2.55792 5.35991L3.54006 5.17177C3.60521 5.5119 3.22842 5.76237 2.94003 5.57064L3.49366 4.73788ZM5.64528 7.36911C5.92628 7.55592 6.3056 7.47878 6.49131 7.19705L5.6564 6.64667C5.77549 6.46602 6.01872 6.41655 6.19891 6.53634L5.64528 7.36911Z" fill="white"/>
<circle cx="8" cy="10.2" r="0.5" fill="white"/>
</svg>
