<svg width="16" height="16" viewBox="0 0 16 16" fill="none" xmlns="http://www.w3.org/2000/svg">
<path d="M6.28877 11.0343C6.62014 11.0343 6.88877 10.7657 6.88877 10.4343C6.88877 10.103 6.62014 9.83434 6.28877 9.83434V11.0343ZM9.71123 9.83434C9.37986 9.83434 9.11123 10.103 9.11123 10.4343C9.11123 10.7657 9.37986 11.0343 9.71123 11.0343V9.83434ZM13.7398 4.38511L14.072 4.88477L13.7398 4.38511ZM13.9412 4.51901L13.3519 4.40613L13.9412 4.51901ZM10.3114 6.50623L9.81042 6.83646L10.3114 6.50623ZM10.4935 6.54327L10.8257 7.04293L10.4935 6.54327ZM7.8905 3.16611L8.39144 3.49634L7.8905 3.16611ZM8.1095 3.16611L7.60856 3.49634L8.1095 3.16611ZM2.26021 4.38511L1.92804 4.88477L2.26021 4.38511ZM5.50651 6.54327L5.17434 7.04293L5.50651 6.54327ZM5.68863 6.50623L6.18958 6.83646L5.68863 6.50623ZM5.83869 6.04361L2.59239 3.88545L1.92804 4.88477L5.17434 7.04293L5.83869 6.04361ZM7.38955 2.83588L5.18768 6.176L6.18958 6.83646L8.39144 3.49634L7.38955 2.83588ZM7.60856 3.49634L9.81042 6.83646L10.8123 6.176L8.61045 2.83588L7.60856 3.49634ZM10.8257 7.04293L14.072 4.88477L13.4076 3.88545L10.1613 6.04361L10.8257 7.04293ZM13.3519 4.40613L12.2188 10.3215L13.3974 10.5472L14.5305 4.63189L13.3519 4.40613ZM12.2081 10.4343V12.0406H13.4081V10.4343H12.2081ZM2.59192 10.4343V12.0406H3.79192V10.4343H2.59192ZM1.4695 4.63189L2.60263 10.5472L3.7812 10.3215L2.64807 4.40613L1.4695 4.63189ZM12.6769 11.5717H3.32308V12.7717H12.6769V11.5717ZM3.19192 11.0343H6.28877V9.83434H3.19192V11.0343ZM12.8081 9.83434H9.71123V11.0343H12.8081V9.83434ZM2.59192 12.0406C2.59192 12.4444 2.91927 12.7717 3.32308 12.7717V11.5717C3.58201 11.5717 3.79192 11.7816 3.79192 12.0406H2.59192ZM12.2081 12.0406C12.2081 11.7816 12.418 11.5717 12.6769 11.5717V12.7717C13.0807 12.7717 13.4081 12.4444 13.4081 12.0406H12.2081ZM14.072 4.88477C13.7259 5.11484 13.2737 4.81428 13.3519 4.40613L14.5305 4.63189C14.6524 3.99539 13.9473 3.52666 13.4076 3.88545L14.072 4.88477ZM9.81042 6.83646C10.0333 7.17453 10.4885 7.2671 10.8257 7.04293L10.1613 6.04361C10.3775 5.89986 10.6694 5.95922 10.8123 6.176L9.81042 6.83646ZM8.39144 3.49634C8.20616 3.77741 7.79384 3.77741 7.60856 3.49634L8.61045 2.83588C8.3215 2.39756 7.6785 2.39756 7.38955 2.83588L8.39144 3.49634ZM2.59239 3.88545C2.0527 3.52666 1.34757 3.99539 1.4695 4.63189L2.64807 4.40613C2.72626 4.81428 2.27411 5.11484 1.92804 4.88477L2.59239 3.88545ZM5.17434 7.04293C5.51154 7.2671 5.96671 7.17453 6.18958 6.83646L5.18768 6.176C5.33059 5.95922 5.62247 5.89986 5.83869 6.04361L5.17434 7.04293Z" fill="currentColor"/>
<circle cx="8.00002" cy="10.4398" r="0.6" fill="currentColor"/>
</svg>
