<svg xmlns="http://www.w3.org/2000/svg" width="24" height="24" viewBox="0 0 24 24" fill="none">
    <path d="M12.0001 3.66699C7.40008 3.66699 3.66675 7.40033 3.66675 12.0003C3.66675 16.6003 7.40008 20.3337 12.0001 20.3337C16.6001 20.3337 20.3334 16.6003 20.3334 12.0003C20.3334 7.40033 16.6001 3.66699 12.0001 3.66699ZM12.0001 18.667C8.32508 18.667 5.33341 15.6753 5.33341 12.0003C5.33341 8.32533 8.32508 5.33366 12.0001 5.33366C15.6751 5.33366 18.6667 8.32533 18.6667 12.0003C18.6667 15.6753 15.6751 18.667 12.0001 18.667ZM15.8251 8.31699L10.3334 13.8087L8.17508 11.6587L7.00008 12.8337L10.3334 16.167L17.0001 9.50033L15.8251 8.31699Z"/>
</svg>
