<svg width="20" height="20" viewBox="0 0 20 20" fill="none" xmlns="http://www.w3.org/2000/svg">
<g clip-path="url(#clip0_5875_46)">
<rect width="20" height="20" fill="white"/>
<circle cx="10" cy="10" r="9" fill="white" stroke="#495057" stroke-width="2"/>
<path fill-rule="evenodd" clip-rule="evenodd" d="M2 10C2 5.58172 5.58172 2 10 2C14.4183 2 18 5.58172 18 10C18 14.4183 14.4183 18 10 18C5.58172 18 2 14.4183 2 10ZM10 0C4.47715 0 0 4.47715 0 10C0 15.5228 4.47715 20 10 20C15.5228 20 20 15.5228 20 10C20 4.47715 15.5228 0 10 0ZM5.82846 7.24264L7.24267 5.82843L10.0711 8.65685L12.8995 5.82844L14.3137 7.24265L11.4853 10.0711L14.3137 12.8995L12.8995 14.3137L10.0711 11.4853L7.24264 14.3137L5.82843 12.8995L8.65688 10.0711L5.82846 7.24264Z" fill="#495057"/>
</g>
<defs>
<clipPath id="clip0_5875_46">
<rect width="20" height="20" fill="white"/>
</clipPath>
</defs>
</svg>
