<svg xmlns="http://www.w3.org/2000/svg" width="24" height="20" fill="none" viewBox="0 0 24 20">
    <path stroke-linecap="round" stroke-linejoin="round" stroke-width="1.5" d="M2.781 18.75l18.75-18M8.962 16.801c.983.305 2.007.457 3.037.45 4.1.068 8.258-2.814 10.824-5.638.275-.305.427-.702.427-1.113 0-.411-.152-.808-.427-1.113-.93-1.02-1.96-1.943-3.074-2.757M14.412 4.032c-.79-.196-1.6-.29-2.414-.282-4.03-.067-8.2 2.752-10.82 5.635-.276.306-.428.702-.428 1.113 0 .411.152.808.427 1.113.797.873 1.667 1.676 2.6 2.4"/>
    <path stroke-linecap="round" stroke-linejoin="round" stroke-width="1.5" d="M8.248 10.5c0-.492.097-.98.286-1.435.188-.455.464-.869.813-1.217.348-.348.761-.624 1.216-.813.455-.188.943-.285 1.435-.285M15.748 10.5c0 .492-.096.98-.285 1.434-.188.456-.464.87-.813 1.218-.348.348-.761.624-1.216.813-.455.188-.943.285-1.435.285"/>
</svg>
