<svg xmlns="http://www.w3.org/2000/svg" width="24" height="15" fill="none" viewBox="0 0 24 15">
    <path stroke-linecap="round" stroke-linejoin="round" stroke-width="1.5" d="M11.998.751c-4.03-.068-8.2 2.75-10.82 5.634-.276.306-.428.702-.428 1.113 0 .411.152.808.427 1.113C3.741 11.435 7.898 14.317 12 14.248c4.1.07 8.258-2.813 10.824-5.637.275-.305.427-.702.427-1.113 0-.41-.152-.807-.427-1.113C20.199 3.5 16.029.683 11.998.751z"/>
    <path stroke-linecap="round" stroke-linejoin="round" stroke-width="1.5" d="M15.748 7.5c0 .742-.22 1.467-.632 2.083-.412.617-.998 1.097-1.683 1.381-.685.284-1.44.358-2.167.213-.727-.145-1.395-.502-1.92-1.027-.524-.524-.881-1.192-1.026-1.92-.144-.727-.07-1.481.214-2.166.284-.685.764-1.271 1.381-1.683.617-.412 1.342-.632 2.083-.632.493 0 .98.097 1.436.285.455.189.869.465 1.217.813.348.349.624.762.813 1.218.188.455.285.943.284 1.435z"/>
</svg>
